<?xml version="1.0" encoding="UTF-8"?>
<!-- 2021-04-14 23:19:13 Generated by QCAD 3.25.2 SVG Exporter -->
<svg width="241.0394mm" height="76.6777mm" viewBox="17.6974 -93.6762 241.0394 76.6777" version="1.1" xmlns="http://www.w3.org/2000/svg" style="stroke-linecap:round;stroke-linejoin:round;fill:none">
    <g transform="scale(1,-1)">
        <!-- Line -->
        <path d="M127.456,71.6262 L139.4561,71.6262 " style="stroke:#000000;stroke-width:0.25;"/>
        <!-- Arc -->
        <path d="M127.456,71.6262 A1,1 0 0,1 126.456,70.6262" style="stroke:#000000;stroke-width:0.25;"/>
        <!-- Line -->
        <path d="M126.456,58.6261 L126.456,70.6262 " style="stroke:#000000;stroke-width:0.25;"/>
        <!-- Arc -->
        <path d="M126.456,58.6261 A1,1 0 0,1 127.456,57.6261" style="stroke:#000000;stroke-width:0.25;"/>
        <!-- Line -->
        <path d="M139.4561,57.6261 L127.456,57.6261 " style="stroke:#000000;stroke-width:0.25;"/>
        <!-- Arc -->
        <path d="M139.4561,57.6261 A1,1 0 0,1 140.4561,58.6261" style="stroke:#000000;stroke-width:0.25;"/>
        <!-- Line -->
        <path d="M140.4561,70.6262 L140.4561,58.6261 " style="stroke:#000000;stroke-width:0.25;"/>
        <!-- Arc -->
        <path d="M140.4561,70.6262 A1,1 0 0,1 139.4561,71.6262" style="stroke:#000000;stroke-width:0.25;"/>
        <!-- Line -->
        <path d="M216.9436,77.6762 L216.9436,89.6762 " style="stroke:#000000;stroke-width:0.25;"/>
        <!-- Arc -->
        <path d="M216.9436,77.6762 A1,1 0 0,1 217.9436,76.6762" style="stroke:#000000;stroke-width:0.25;"/>
        <!-- Line -->
        <path d="M229.9436,76.6762 L217.9436,76.6762 " style="stroke:#000000;stroke-width:0.25;"/>
        <!-- Arc -->
        <path d="M229.9436,76.6762 A1,1 0 0,1 230.9436,77.6762" style="stroke:#000000;stroke-width:0.25;"/>
        <!-- Line -->
        <path d="M230.9436,89.6762 L230.9436,77.6762 " style="stroke:#000000;stroke-width:0.25;"/>
        <!-- Arc -->
        <path d="M230.9436,89.6762 A1,1 0 0,1 229.9436,90.6762" style="stroke:#000000;stroke-width:0.25;"/>
        <!-- Line -->
        <path d="M217.9436,90.6762 L229.9436,90.6762 " style="stroke:#000000;stroke-width:0.25;"/>
        <!-- Arc -->
        <path d="M217.9436,90.6762 A1,1 0 0,1 216.9436,89.6762" style="stroke:#000000;stroke-width:0.25;"/>
        <!-- Arc -->
        <path d="M78.831,39.5761 A1,1 0 0,1 79.831,38.5761" style="stroke:#000000;stroke-width:0.25;"/>
        <!-- Line -->
        <path d="M91.831,38.5761 L79.831,38.5761 " style="stroke:#000000;stroke-width:0.25;"/>
        <!-- Arc -->
        <path d="M91.831,38.5761 A1,1 0 0,1 92.831,39.5761" style="stroke:#000000;stroke-width:0.25;"/>
        <!-- Line -->
        <path d="M92.831,51.5761 L92.831,39.5761 " style="stroke:#000000;stroke-width:0.25;"/>
        <!-- Arc -->
        <path d="M92.831,51.5761 A1,1 0 0,1 91.831,52.5761" style="stroke:#000000;stroke-width:0.25;"/>
        <!-- Line -->
        <path d="M79.831,52.5761 L91.831,52.5761 " style="stroke:#000000;stroke-width:0.25;"/>
        <!-- Arc -->
        <path d="M79.831,52.5761 A1,1 0 0,1 78.831,51.5761" style="stroke:#000000;stroke-width:0.25;"/>
        <!-- Line -->
        <path d="M78.831,39.5761 L78.831,51.5761 " style="stroke:#000000;stroke-width:0.25;"/>
        <!-- Line -->
        <path d="M164.5561,58.6261 L164.5561,70.6262 " style="stroke:#000000;stroke-width:0.25;"/>
        <!-- Arc -->
        <path d="M164.5561,58.6261 A1,1 0 0,1 165.5561,57.6261" style="stroke:#000000;stroke-width:0.25;"/>
        <!-- Line -->
        <path d="M177.5561,57.6261 L165.5561,57.6261 " style="stroke:#000000;stroke-width:0.25;"/>
        <!-- Arc -->
        <path d="M177.5561,57.6261 A1,1 0 0,1 178.5561,58.6261" style="stroke:#000000;stroke-width:0.25;"/>
        <!-- Line -->
        <path d="M178.5561,70.6262 L178.5561,58.6261 " style="stroke:#000000;stroke-width:0.25;"/>
        <!-- Arc -->
        <path d="M178.5561,70.6262 A1,1 0 0,1 177.5561,71.6262" style="stroke:#000000;stroke-width:0.25;"/>
        <!-- Line -->
        <path d="M165.5561,71.6262 L177.5561,71.6262 " style="stroke:#000000;stroke-width:0.25;"/>
        <!-- Arc -->
        <path d="M165.5561,71.6262 A1,1 0 0,1 164.5561,70.6262" style="stroke:#000000;stroke-width:0.25;"/>
        <!-- Line -->
        <path d="M116.931,39.5761 L116.931,51.5761 " style="stroke:#000000;stroke-width:0.25;"/>
        <!-- Arc -->
        <path d="M116.931,39.5761 A1,1 0 0,1 117.931,38.5761" style="stroke:#000000;stroke-width:0.25;"/>
        <!-- Line -->
        <path d="M129.931,38.5761 L117.931,38.5761 " style="stroke:#000000;stroke-width:0.25;"/>
        <!-- Arc -->
        <path d="M129.931,38.5761 A1,1 0 0,1 130.931,39.5761" style="stroke:#000000;stroke-width:0.25;"/>
        <!-- Line -->
        <path d="M130.931,51.5761 L130.931,39.5761 " style="stroke:#000000;stroke-width:0.25;"/>
        <!-- Arc -->
        <path d="M130.931,51.5761 A1,1 0 0,1 129.931,52.5761" style="stroke:#000000;stroke-width:0.25;"/>
        <!-- Line -->
        <path d="M117.931,52.5761 L129.931,52.5761 " style="stroke:#000000;stroke-width:0.25;"/>
        <!-- Arc -->
        <path d="M117.931,52.5761 A1,1 0 0,1 116.931,51.5761" style="stroke:#000000;stroke-width:0.25;"/>
        <!-- Line -->
        <path d="M155.0311,39.5761 L155.0311,51.5761 " style="stroke:#000000;stroke-width:0.25;"/>
        <!-- Arc -->
        <path d="M155.0311,39.5761 A1,1 0 0,1 156.0311,38.5761" style="stroke:#000000;stroke-width:0.25;"/>
        <!-- Line -->
        <path d="M168.0311,38.5761 L156.0311,38.5761 " style="stroke:#000000;stroke-width:0.25;"/>
        <!-- Arc -->
        <path d="M168.0311,38.5761 A1,1 0 0,1 169.0311,39.5761" style="stroke:#000000;stroke-width:0.25;"/>
        <!-- Line -->
        <path d="M169.0311,51.5761 L169.0311,39.5761 " style="stroke:#000000;stroke-width:0.25;"/>
        <!-- Arc -->
        <path d="M169.0311,51.5761 A1,1 0 0,1 168.0311,52.5761" style="stroke:#000000;stroke-width:0.25;"/>
        <!-- Line -->
        <path d="M156.0311,52.5761 L168.0311,52.5761 " style="stroke:#000000;stroke-width:0.25;"/>
        <!-- Arc -->
        <path d="M156.0311,52.5761 A1,1 0 0,1 155.0311,51.5761" style="stroke:#000000;stroke-width:0.25;"/>
        <!-- Arc -->
        <path d="M183.6061,58.6261 A1,1 0 0,1 184.6061,57.6261" style="stroke:#000000;stroke-width:0.25;"/>
        <!-- Line -->
        <path d="M196.6061,57.6261 L184.6061,57.6261 " style="stroke:#000000;stroke-width:0.25;"/>
        <!-- Arc -->
        <path d="M196.6061,57.6261 A1,1 0 0,1 197.6061,58.6261" style="stroke:#000000;stroke-width:0.25;"/>
        <!-- Line -->
        <path d="M197.6061,70.6262 L197.6061,58.6261 " style="stroke:#000000;stroke-width:0.25;"/>
        <!-- Arc -->
        <path d="M197.6061,70.6262 A1,1 0 0,1 196.6061,71.6262" style="stroke:#000000;stroke-width:0.25;"/>
        <!-- Line -->
        <path d="M184.6061,71.6262 L196.6061,71.6262 " style="stroke:#000000;stroke-width:0.25;"/>
        <!-- Arc -->
        <path d="M184.6061,71.6262 A1,1 0 0,1 183.6061,70.6262" style="stroke:#000000;stroke-width:0.25;"/>
        <!-- Line -->
        <path d="M183.6061,58.6261 L183.6061,70.6262 " style="stroke:#000000;stroke-width:0.25;"/>
        <!-- Line -->
        <path d="M202.6561,58.6261 L202.6561,70.6262 " style="stroke:#000000;stroke-width:0.25;"/>
        <!-- Arc -->
        <path d="M202.6561,58.6261 A1,1 0 0,1 203.6561,57.6261" style="stroke:#000000;stroke-width:0.25;"/>
        <!-- Line -->
        <path d="M215.6561,57.6261 L203.6561,57.6261 " style="stroke:#000000;stroke-width:0.25;"/>
        <!-- Arc -->
        <path d="M215.6561,57.6261 A1,1 0 0,1 216.6561,58.6261" style="stroke:#000000;stroke-width:0.25;"/>
        <!-- Line -->
        <path d="M216.6561,70.6262 L216.6561,58.6261 " style="stroke:#000000;stroke-width:0.25;"/>
        <!-- Arc -->
        <path d="M216.6561,70.6262 A1,1 0 0,1 215.6561,71.6262" style="stroke:#000000;stroke-width:0.25;"/>
        <!-- Line -->
        <path d="M203.6561,71.6262 L215.6561,71.6262 " style="stroke:#000000;stroke-width:0.25;"/>
        <!-- Arc -->
        <path d="M203.6561,71.6262 A1,1 0 0,1 202.6561,70.6262" style="stroke:#000000;stroke-width:0.25;"/>
        <!-- Line -->
        <path d="M107.406,58.6261 L107.406,70.6262 " style="stroke:#000000;stroke-width:0.25;"/>
        <!-- Arc -->
        <path d="M107.406,58.6261 A1,1 0 0,1 108.406,57.6261" style="stroke:#000000;stroke-width:0.25;"/>
        <!-- Line -->
        <path d="M120.406,57.6261 L108.406,57.6261 " style="stroke:#000000;stroke-width:0.25;"/>
        <!-- Arc -->
        <path d="M120.406,57.6261 A1,1 0 0,1 121.406,58.6261" style="stroke:#000000;stroke-width:0.25;"/>
        <!-- Line -->
        <path d="M121.406,70.6262 L121.406,58.6261 " style="stroke:#000000;stroke-width:0.25;"/>
        <!-- Arc -->
        <path d="M121.406,70.6262 A1,1 0 0,1 120.406,71.6262" style="stroke:#000000;stroke-width:0.25;"/>
        <!-- Line -->
        <path d="M108.406,71.6262 L120.406,71.6262 " style="stroke:#000000;stroke-width:0.25;"/>
        <!-- Arc -->
        <path d="M108.406,71.6262 A1,1 0 0,1 107.406,70.6262" style="stroke:#000000;stroke-width:0.25;"/>
        <!-- Line -->
        <path d="M193.1311,39.5761 L193.1311,51.5761 " style="stroke:#000000;stroke-width:0.25;"/>
        <!-- Arc -->
        <path d="M193.1311,39.5761 A1,1 0 0,1 194.1311,38.5761" style="stroke:#000000;stroke-width:0.25;"/>
        <!-- Line -->
        <path d="M206.1311,38.5761 L194.1311,38.5761 " style="stroke:#000000;stroke-width:0.25;"/>
        <!-- Arc -->
        <path d="M206.1311,38.5761 A1,1 0 0,1 207.1311,39.5761" style="stroke:#000000;stroke-width:0.25;"/>
        <!-- Line -->
        <path d="M207.1311,51.5761 L207.1311,39.5761 " style="stroke:#000000;stroke-width:0.25;"/>
        <!-- Arc -->
        <path d="M207.1311,51.5761 A1,1 0 0,1 206.1311,52.5761" style="stroke:#000000;stroke-width:0.25;"/>
        <!-- Line -->
        <path d="M194.1311,52.5761 L206.1311,52.5761 " style="stroke:#000000;stroke-width:0.25;"/>
        <!-- Arc -->
        <path d="M194.1311,52.5761 A1,1 0 0,1 193.1311,51.5761" style="stroke:#000000;stroke-width:0.25;"/>
        <!-- Line -->
        <path d="M98.881,52.5761 L110.881,52.5761 " style="stroke:#000000;stroke-width:0.25;"/>
        <!-- Arc -->
        <path d="M98.881,52.5761 A1,1 0 0,1 97.881,51.5761" style="stroke:#000000;stroke-width:0.25;"/>
        <!-- Line -->
        <path d="M97.881,39.5761 L97.881,51.5761 " style="stroke:#000000;stroke-width:0.25;"/>
        <!-- Arc -->
        <path d="M97.881,39.5761 A1,1 0 0,1 98.881,38.5761" style="stroke:#000000;stroke-width:0.25;"/>
        <!-- Line -->
        <path d="M110.881,38.5761 L98.881,38.5761 " style="stroke:#000000;stroke-width:0.25;"/>
        <!-- Arc -->
        <path d="M110.881,38.5761 A1,1 0 0,1 111.881,39.5761" style="stroke:#000000;stroke-width:0.25;"/>
        <!-- Line -->
        <path d="M111.881,51.5761 L111.881,39.5761 " style="stroke:#000000;stroke-width:0.25;"/>
        <!-- Arc -->
        <path d="M111.881,51.5761 A1,1 0 0,1 110.881,52.5761" style="stroke:#000000;stroke-width:0.25;"/>
        <!-- Line -->
        <path d="M135.981,39.5761 L135.981,51.5761 " style="stroke:#000000;stroke-width:0.25;"/>
        <!-- Arc -->
        <path d="M135.981,39.5761 A1,1 0 0,1 136.981,38.5761" style="stroke:#000000;stroke-width:0.25;"/>
        <!-- Line -->
        <path d="M148.9811,38.5761 L136.981,38.5761 " style="stroke:#000000;stroke-width:0.25;"/>
        <!-- Arc -->
        <path d="M148.9811,38.5761 A1,1 0 0,1 149.9811,39.5761" style="stroke:#000000;stroke-width:0.25;"/>
        <!-- Line -->
        <path d="M149.9811,51.5761 L149.9811,39.5761 " style="stroke:#000000;stroke-width:0.25;"/>
        <!-- Arc -->
        <path d="M149.9811,51.5761 A1,1 0 0,1 148.9811,52.5761" style="stroke:#000000;stroke-width:0.25;"/>
        <!-- Line -->
        <path d="M136.981,52.5761 L148.9811,52.5761 " style="stroke:#000000;stroke-width:0.25;"/>
        <!-- Arc -->
        <path d="M136.981,52.5761 A1,1 0 0,1 135.981,51.5761" style="stroke:#000000;stroke-width:0.25;"/>
        <!-- Line -->
        <path d="M174.0811,39.5761 L174.0811,51.5761 " style="stroke:#000000;stroke-width:0.25;"/>
        <!-- Arc -->
        <path d="M174.0811,39.5761 A1,1 0 0,1 175.0811,38.5761" style="stroke:#000000;stroke-width:0.25;"/>
        <!-- Line -->
        <path d="M187.0811,38.5761 L175.0811,38.5761 " style="stroke:#000000;stroke-width:0.25;"/>
        <!-- Arc -->
        <path d="M187.0811,38.5761 A1,1 0 0,1 188.0811,39.5761" style="stroke:#000000;stroke-width:0.25;"/>
        <!-- Line -->
        <path d="M188.0811,51.5761 L188.0811,39.5761 " style="stroke:#000000;stroke-width:0.25;"/>
        <!-- Arc -->
        <path d="M188.0811,51.5761 A1,1 0 0,1 187.0811,52.5761" style="stroke:#000000;stroke-width:0.25;"/>
        <!-- Line -->
        <path d="M175.0811,52.5761 L187.0811,52.5761 " style="stroke:#000000;stroke-width:0.25;"/>
        <!-- Arc -->
        <path d="M175.0811,52.5761 A1,1 0 0,1 174.0811,51.5761" style="stroke:#000000;stroke-width:0.25;"/>
        <!-- Line -->
        <path d="M59.781,39.5761 L59.781,51.5761 " style="stroke:#000000;stroke-width:0.25;"/>
        <!-- Arc -->
        <path d="M59.781,39.5761 A1,1 0 0,1 60.781,38.5761" style="stroke:#000000;stroke-width:0.25;"/>
        <!-- Line -->
        <path d="M72.781,38.5761 L60.781,38.5761 " style="stroke:#000000;stroke-width:0.25;"/>
        <!-- Arc -->
        <path d="M72.781,38.5761 A1,1 0 0,1 73.781,39.5761" style="stroke:#000000;stroke-width:0.25;"/>
        <!-- Line -->
        <path d="M73.781,51.5761 L73.781,39.5761 " style="stroke:#000000;stroke-width:0.25;"/>
        <!-- Arc -->
        <path d="M73.781,51.5761 A1,1 0 0,1 72.781,52.5761" style="stroke:#000000;stroke-width:0.25;"/>
        <!-- Line -->
        <path d="M60.781,52.5761 L72.781,52.5761 " style="stroke:#000000;stroke-width:0.25;"/>
        <!-- Arc -->
        <path d="M60.781,52.5761 A1,1 0 0,1 59.781,51.5761" style="stroke:#000000;stroke-width:0.25;"/>
        <!-- Line -->
        <path d="M19.2997,20.5261 L19.2997,32.5261 " style="stroke:#000000;stroke-width:0.25;"/>
        <!-- Arc -->
        <path d="M19.2997,20.5261 A1,1 0 0,1 20.2997,19.5261" style="stroke:#000000;stroke-width:0.25;"/>
        <!-- Line -->
        <path d="M32.2997,19.5261 L20.2997,19.5261 " style="stroke:#000000;stroke-width:0.25;"/>
        <!-- Arc -->
        <path d="M32.2997,19.5261 A1,1 0 0,1 33.2997,20.5261" style="stroke:#000000;stroke-width:0.25;"/>
        <!-- Line -->
        <path d="M33.2997,32.5261 L33.2997,20.5261 " style="stroke:#000000;stroke-width:0.25;"/>
        <!-- Arc -->
        <path d="M33.2997,32.5261 A1,1 0 0,1 32.2997,33.5261" style="stroke:#000000;stroke-width:0.25;"/>
        <!-- Line -->
        <path d="M20.2997,33.5261 L32.2997,33.5261 " style="stroke:#000000;stroke-width:0.25;"/>
        <!-- Arc -->
        <path d="M20.2997,33.5261 A1,1 0 0,1 19.2997,32.5261" style="stroke:#000000;stroke-width:0.25;"/>
        <!-- Arc -->
        <path d="M145.5061,58.6261 A1,1 0 0,1 146.5061,57.6261" style="stroke:#000000;stroke-width:0.25;"/>
        <!-- Line -->
        <path d="M158.5061,57.6261 L146.5061,57.6261 " style="stroke:#000000;stroke-width:0.25;"/>
        <!-- Arc -->
        <path d="M158.5061,57.6261 A1,1 0 0,1 159.5061,58.6261" style="stroke:#000000;stroke-width:0.25;"/>
        <!-- Line -->
        <path d="M159.5061,70.6262 L159.5061,58.6261 " style="stroke:#000000;stroke-width:0.25;"/>
        <!-- Arc -->
        <path d="M159.5061,70.6262 A1,1 0 0,1 158.5061,71.6262" style="stroke:#000000;stroke-width:0.25;"/>
        <!-- Line -->
        <path d="M146.5061,71.6262 L158.5061,71.6262 " style="stroke:#000000;stroke-width:0.25;"/>
        <!-- Arc -->
        <path d="M146.5061,71.6262 A1,1 0 0,1 145.5061,70.6262" style="stroke:#000000;stroke-width:0.25;"/>
        <!-- Line -->
        <path d="M145.5061,58.6261 L145.5061,70.6262 " style="stroke:#000000;stroke-width:0.25;"/>
        <!-- Arc -->
        <path d="M102.6435,77.6762 A1,1 0 0,1 103.6435,76.6762" style="stroke:#000000;stroke-width:0.25;"/>
        <!-- Line -->
        <path d="M115.6435,76.6762 L103.6435,76.6762 " style="stroke:#000000;stroke-width:0.25;"/>
        <!-- Arc -->
        <path d="M115.6435,76.6762 A1,1 0 0,1 116.6435,77.6762" style="stroke:#000000;stroke-width:0.25;"/>
        <!-- Line -->
        <path d="M116.6435,89.6762 L116.6435,77.6762 " style="stroke:#000000;stroke-width:0.25;"/>
        <!-- Arc -->
        <path d="M116.6435,89.6762 A1,1 0 0,1 115.6435,90.6762" style="stroke:#000000;stroke-width:0.25;"/>
        <!-- Line -->
        <path d="M103.6435,90.6762 L115.6435,90.6762 " style="stroke:#000000;stroke-width:0.25;"/>
        <!-- Arc -->
        <path d="M103.6435,90.6762 A1,1 0 0,1 102.6435,89.6762" style="stroke:#000000;stroke-width:0.25;"/>
        <!-- Line -->
        <path d="M102.6435,77.6762 L102.6435,89.6762 " style="stroke:#000000;stroke-width:0.25;"/>
        <!-- Arc -->
        <path d="M225.1743,56.6261 A1,1 0 0,1 226.1743,55.6261" style="stroke:#000000;stroke-width:0.25;"/>
        <!-- Line -->
        <path d="M231.1744,55.6261 L226.1743,55.6261 " style="stroke:#000000;stroke-width:0.25;"/>
        <!-- Arc -->
        <path d="M231.1744,55.6261 A1,1 0 0,1 232.1744,56.6261" style="stroke:#000000;stroke-width:0.25;"/>
        <!-- Arc -->
        <path d="M233.1744,57.6261 A1,1 0 0,1 232.1744,56.6261" style="stroke:#000000;stroke-width:0.25;"/>
        <!-- Line -->
        <path d="M248.0504,57.6261 L233.1744,57.6261 " style="stroke:#000000;stroke-width:0.25;"/>
        <!-- Arc -->
        <path d="M249.0504,56.6261 A1,1 0 0,1 248.0504,57.6261" style="stroke:#000000;stroke-width:0.25;"/>
        <!-- Arc -->
        <path d="M249.0504,56.6261 A1,1 0 0,1 250.0504,55.6261" style="stroke:#000000;stroke-width:0.25;"/>
        <!-- Line -->
        <path d="M255.0504,55.6261 L250.0504,55.6261 " style="stroke:#000000;stroke-width:0.25;"/>
        <!-- Arc -->
        <path d="M255.0504,55.6261 A1,1 0 0,1 256.0504,56.6261" style="stroke:#000000;stroke-width:0.25;"/>
        <!-- Line -->
        <path d="M256.0504,69.6262 L256.0504,56.6261 " style="stroke:#000000;stroke-width:0.25;"/>
        <!-- Arc -->
        <path d="M256.0504,69.6262 A1,1 0 0,1 255.0504,70.6262" style="stroke:#000000;stroke-width:0.25;"/>
        <!-- Line -->
        <path d="M248.3444,70.6262 L255.0504,70.6262 " style="stroke:#000000;stroke-width:0.25;"/>
        <!-- Arc -->
        <path d="M247.4784,71.1262 A1,1 0 0,1 248.3444,70.6262" style="stroke:#000000;stroke-width:0.25;"/>
        <!-- Arc -->
        <path d="M247.4784,71.1262 A1,1 0 0,1 246.6124,71.6262" style="stroke:#000000;stroke-width:0.25;"/>
        <!-- Line -->
        <path d="M234.6124,71.6262 L246.6124,71.6262 " style="stroke:#000000;stroke-width:0.25;"/>
        <!-- Arc -->
        <path d="M234.6124,71.6262 A1,1 0 0,1 233.7463,71.1262" style="stroke:#000000;stroke-width:0.25;"/>
        <!-- Arc -->
        <path d="M232.8803,70.6262 A1,1 0 0,1 233.7463,71.1262" style="stroke:#000000;stroke-width:0.25;"/>
        <!-- Line -->
        <path d="M226.1743,70.6262 L232.8803,70.6262 " style="stroke:#000000;stroke-width:0.25;"/>
        <!-- Arc -->
        <path d="M226.1743,70.6262 A1,1 0 0,1 225.1743,69.6262" style="stroke:#000000;stroke-width:0.25;"/>
        <!-- Line -->
        <path d="M225.1743,56.6261 L225.1743,69.6262 " style="stroke:#000000;stroke-width:0.25;"/>
        <!-- Line -->
        <path d="M19.2997,58.6261 L19.2997,70.6262 " style="stroke:#000000;stroke-width:0.25;"/>
        <!-- Arc -->
        <path d="M19.2997,58.6261 A1,1 0 0,1 20.2997,57.6261" style="stroke:#000000;stroke-width:0.25;"/>
        <!-- Line -->
        <path d="M37.0622,57.6261 L20.2997,57.6261 " style="stroke:#000000;stroke-width:0.25;"/>
        <!-- Arc -->
        <path d="M37.0622,57.6261 A1,1 0 0,1 38.0622,58.6261" style="stroke:#000000;stroke-width:0.25;"/>
        <!-- Line -->
        <path d="M38.0622,70.6262 L38.0622,58.6261 " style="stroke:#000000;stroke-width:0.25;"/>
        <!-- Arc -->
        <path d="M38.0622,70.6262 A1,1 0 0,1 37.0622,71.6262" style="stroke:#000000;stroke-width:0.25;"/>
        <!-- Line -->
        <path d="M20.2997,71.6262 L37.0622,71.6262 " style="stroke:#000000;stroke-width:0.25;"/>
        <!-- Arc -->
        <path d="M20.2997,71.6262 A1,1 0 0,1 19.2997,70.6262" style="stroke:#000000;stroke-width:0.25;"/>
        <!-- Arc -->
        <path d="M64.5435,77.6762 A1,1 0 0,1 65.5435,76.6762" style="stroke:#000000;stroke-width:0.25;"/>
        <!-- Line -->
        <path d="M77.5435,76.6762 L65.5435,76.6762 " style="stroke:#000000;stroke-width:0.25;"/>
        <!-- Arc -->
        <path d="M77.5435,76.6762 A1,1 0 0,1 78.5435,77.6762" style="stroke:#000000;stroke-width:0.25;"/>
        <!-- Line -->
        <path d="M78.5435,89.6762 L78.5435,77.6762 " style="stroke:#000000;stroke-width:0.25;"/>
        <!-- Arc -->
        <path d="M78.5435,89.6762 A1,1 0 0,1 77.5435,90.6762" style="stroke:#000000;stroke-width:0.25;"/>
        <!-- Line -->
        <path d="M65.5435,90.6762 L77.5435,90.6762 " style="stroke:#000000;stroke-width:0.25;"/>
        <!-- Arc -->
        <path d="M65.5435,90.6762 A1,1 0 0,1 64.5435,89.6762" style="stroke:#000000;stroke-width:0.25;"/>
        <!-- Line -->
        <path d="M64.5435,77.6762 L64.5435,89.6762 " style="stroke:#000000;stroke-width:0.25;"/>
        <!-- Line -->
        <path d="M54.731,51.5761 L54.731,39.5761 " style="stroke:#000000;stroke-width:0.25;"/>
        <!-- Arc -->
        <path d="M54.731,51.5761 A1,1 0 0,1 53.731,52.5761" style="stroke:#000000;stroke-width:0.25;"/>
        <!-- Line -->
        <path d="M20.2997,52.5761 L53.731,52.5761 " style="stroke:#000000;stroke-width:0.25;"/>
        <!-- Arc -->
        <path d="M20.2997,52.5761 A1,1 0 0,1 19.2997,51.5761" style="stroke:#000000;stroke-width:0.25;"/>
        <!-- Line -->
        <path d="M19.2997,39.5761 L19.2997,51.5761 " style="stroke:#000000;stroke-width:0.25;"/>
        <!-- Arc -->
        <path d="M19.2997,39.5761 A1,1 0 0,1 19.8432,38.6864" style="stroke:#000000;stroke-width:0.25;"/>
        <!-- Arc -->
        <path d="M20.3867,37.7967 A1,1 0 0,1 19.8432,38.6864" style="stroke:#000000;stroke-width:0.25;"/>
        <!-- Line -->
        <path d="M20.3867,37.5761 L20.3867,37.7967 " style="stroke:#000000;stroke-width:0.25;"/>
        <!-- Arc -->
        <path d="M20.3867,37.5761 A1,1 0 0,1 21.3867,36.5761" style="stroke:#000000;stroke-width:0.25;"/>
        <!-- Line -->
        <path d="M26.3867,36.5761 L21.3867,36.5761 " style="stroke:#000000;stroke-width:0.25;"/>
        <!-- Arc -->
        <path d="M26.3867,36.5761 A1,1 0 0,1 27.3867,37.5761" style="stroke:#000000;stroke-width:0.25;"/>
        <!-- Arc -->
        <path d="M28.3867,38.5761 A1,1 0 0,1 27.3867,37.5761" style="stroke:#000000;stroke-width:0.25;"/>
        <!-- Line -->
        <path d="M43.2627,38.5761 L28.3867,38.5761 " style="stroke:#000000;stroke-width:0.25;"/>
        <!-- Arc -->
        <path d="M44.2627,37.5761 A1,1 0 0,1 43.2627,38.5761" style="stroke:#000000;stroke-width:0.25;"/>
        <!-- Arc -->
        <path d="M44.2627,37.5761 A1,1 0 0,1 45.2627,36.5761" style="stroke:#000000;stroke-width:0.25;"/>
        <!-- Line -->
        <path d="M50.2628,36.5761 L45.2627,36.5761 " style="stroke:#000000;stroke-width:0.25;"/>
        <!-- Arc -->
        <path d="M50.2628,36.5761 A1,1 0 0,1 51.2628,37.5761" style="stroke:#000000;stroke-width:0.25;"/>
        <!-- Arc -->
        <path d="M52.2628,38.5761 A1,1 0 0,1 51.2628,37.5761" style="stroke:#000000;stroke-width:0.25;"/>
        <!-- Line -->
        <path d="M53.731,38.5761 L52.2628,38.5761 " style="stroke:#000000;stroke-width:0.25;"/>
        <!-- Arc -->
        <path d="M53.731,38.5761 A1,1 0 0,1 54.731,39.5761" style="stroke:#000000;stroke-width:0.25;"/>
        <!-- Line -->
        <path d="M159.7936,77.6762 L159.7936,89.6762 " style="stroke:#000000;stroke-width:0.25;"/>
        <!-- Arc -->
        <path d="M159.7936,77.6762 A1,1 0 0,1 160.7936,76.6762" style="stroke:#000000;stroke-width:0.25;"/>
        <!-- Line -->
        <path d="M172.7936,76.6762 L160.7936,76.6762 " style="stroke:#000000;stroke-width:0.25;"/>
        <!-- Arc -->
        <path d="M172.7936,76.6762 A1,1 0 0,1 173.7936,77.6762" style="stroke:#000000;stroke-width:0.25;"/>
        <!-- Line -->
        <path d="M173.7936,89.6762 L173.7936,77.6762 " style="stroke:#000000;stroke-width:0.25;"/>
        <!-- Arc -->
        <path d="M173.7936,89.6762 A1,1 0 0,1 172.7936,90.6762" style="stroke:#000000;stroke-width:0.25;"/>
        <!-- Line -->
        <path d="M160.7936,90.6762 L172.7936,90.6762 " style="stroke:#000000;stroke-width:0.25;"/>
        <!-- Arc -->
        <path d="M160.7936,90.6762 A1,1 0 0,1 159.7936,89.6762" style="stroke:#000000;stroke-width:0.25;"/>
        <!-- Line -->
        <path d="M154.7368,35.5261 L159.7368,35.5261 " style="stroke:#000000;stroke-width:0.25;"/>
        <!-- Arc -->
        <path d="M154.7368,35.5261 A1,1 0 0,1 153.7368,34.5261" style="stroke:#000000;stroke-width:0.25;"/>
        <!-- Line -->
        <path d="M153.7368,21.5261 L153.7368,34.5261 " style="stroke:#000000;stroke-width:0.25;"/>
        <!-- Arc -->
        <path d="M153.7368,21.5261 A1,1 0 0,1 154.7368,20.5261" style="stroke:#000000;stroke-width:0.25;"/>
        <!-- Line -->
        <path d="M161.4428,20.5261 L154.7368,20.5261 " style="stroke:#000000;stroke-width:0.25;"/>
        <!-- Arc -->
        <path d="M162.3088,20.0261 A1,1 0 0,1 161.4428,20.5261" style="stroke:#000000;stroke-width:0.25;"/>
        <!-- Arc -->
        <path d="M162.3088,20.0261 A1,1 0 0,1 163.1748,19.5261" style="stroke:#000000;stroke-width:0.25;"/>
        <!-- Line -->
        <path d="M175.1748,19.5261 L163.1748,19.5261 " style="stroke:#000000;stroke-width:0.25;"/>
        <!-- Arc -->
        <path d="M175.1748,19.5261 A1,1 0 0,1 176.0408,20.0261" style="stroke:#000000;stroke-width:0.25;"/>
        <!-- Arc -->
        <path d="M176.9069,20.5261 A1,1 0 0,1 176.0408,20.0261" style="stroke:#000000;stroke-width:0.25;"/>
        <!-- Line -->
        <path d="M188.3373,20.5261 L176.9069,20.5261 " style="stroke:#000000;stroke-width:0.25;"/>
        <!-- Arc -->
        <path d="M188.3373,20.5261 A1,1 0 0,1 189.3373,21.5261" style="stroke:#000000;stroke-width:0.25;"/>
        <!-- Line -->
        <path d="M189.3373,34.5261 L189.3373,21.5261 " style="stroke:#000000;stroke-width:0.25;"/>
        <!-- Arc -->
        <path d="M189.3373,34.5261 A1,1 0 0,1 188.3373,35.5261" style="stroke:#000000;stroke-width:0.25;"/>
        <!-- Line -->
        <path d="M178.6128,35.5261 L188.3373,35.5261 " style="stroke:#000000;stroke-width:0.25;"/>
        <!-- Arc -->
        <path d="M178.6128,35.5261 A1,1 0 0,1 177.6128,34.5261" style="stroke:#000000;stroke-width:0.25;"/>
        <!-- Arc -->
        <path d="M176.6128,33.5261 A1,1 0 0,1 177.6128,34.5261" style="stroke:#000000;stroke-width:0.25;"/>
        <!-- Line -->
        <path d="M161.7368,33.5261 L176.6128,33.5261 " style="stroke:#000000;stroke-width:0.25;"/>
        <!-- Arc -->
        <path d="M160.7368,34.5261 A1,1 0 0,1 161.7368,33.5261" style="stroke:#000000;stroke-width:0.25;"/>
        <!-- Arc -->
        <path d="M160.7368,34.5261 A1,1 0 0,1 159.7368,35.5261" style="stroke:#000000;stroke-width:0.25;"/>
        <!-- Line -->
        <path d="M121.6935,77.6762 L121.6935,89.6762 " style="stroke:#000000;stroke-width:0.25;"/>
        <!-- Arc -->
        <path d="M121.6935,77.6762 A1,1 0 0,1 122.6935,76.6762" style="stroke:#000000;stroke-width:0.25;"/>
        <!-- Line -->
        <path d="M134.6935,76.6762 L122.6935,76.6762 " style="stroke:#000000;stroke-width:0.25;"/>
        <!-- Arc -->
        <path d="M134.6935,76.6762 A1,1 0 0,1 135.6935,77.6762" style="stroke:#000000;stroke-width:0.25;"/>
        <!-- Line -->
        <path d="M135.6935,89.6762 L135.6935,77.6762 " style="stroke:#000000;stroke-width:0.25;"/>
        <!-- Arc -->
        <path d="M135.6935,89.6762 A1,1 0 0,1 134.6935,90.6762" style="stroke:#000000;stroke-width:0.25;"/>
        <!-- Line -->
        <path d="M122.6935,90.6762 L134.6935,90.6762 " style="stroke:#000000;stroke-width:0.25;"/>
        <!-- Arc -->
        <path d="M122.6935,90.6762 A1,1 0 0,1 121.6935,89.6762" style="stroke:#000000;stroke-width:0.25;"/>
        <!-- Line -->
        <path d="M221.7061,20.5261 L221.7061,32.5261 " style="stroke:#000000;stroke-width:0.25;"/>
        <!-- Arc -->
        <path d="M221.7061,20.5261 A1,1 0 0,1 222.7061,19.5261" style="stroke:#000000;stroke-width:0.25;"/>
        <!-- Line -->
        <path d="M234.7061,19.5261 L222.7061,19.5261 " style="stroke:#000000;stroke-width:0.25;"/>
        <!-- Arc -->
        <path d="M234.7061,19.5261 A1,1 0 0,1 235.7061,20.5261" style="stroke:#000000;stroke-width:0.25;"/>
        <!-- Line -->
        <path d="M235.7061,32.5261 L235.7061,20.5261 " style="stroke:#000000;stroke-width:0.25;"/>
        <!-- Arc -->
        <path d="M235.7061,32.5261 A1,1 0 0,1 234.7061,33.5261" style="stroke:#000000;stroke-width:0.25;"/>
        <!-- Line -->
        <path d="M222.7061,33.5261 L234.7061,33.5261 " style="stroke:#000000;stroke-width:0.25;"/>
        <!-- Arc -->
        <path d="M222.7061,33.5261 A1,1 0 0,1 221.7061,32.5261" style="stroke:#000000;stroke-width:0.25;"/>
        <!-- Line -->
        <path d="M83.5935,77.6762 L83.5935,89.6762 " style="stroke:#000000;stroke-width:0.25;"/>
        <!-- Arc -->
        <path d="M83.5935,77.6762 A1,1 0 0,1 84.5935,76.6762" style="stroke:#000000;stroke-width:0.25;"/>
        <!-- Line -->
        <path d="M96.5935,76.6762 L84.5935,76.6762 " style="stroke:#000000;stroke-width:0.25;"/>
        <!-- Arc -->
        <path d="M96.5935,76.6762 A1,1 0 0,1 97.5935,77.6762" style="stroke:#000000;stroke-width:0.25;"/>
        <!-- Line -->
        <path d="M97.5935,89.6762 L97.5935,77.6762 " style="stroke:#000000;stroke-width:0.25;"/>
        <!-- Arc -->
        <path d="M97.5935,89.6762 A1,1 0 0,1 96.5935,90.6762" style="stroke:#000000;stroke-width:0.25;"/>
        <!-- Line -->
        <path d="M84.5935,90.6762 L96.5935,90.6762 " style="stroke:#000000;stroke-width:0.25;"/>
        <!-- Arc -->
        <path d="M84.5935,90.6762 A1,1 0 0,1 83.5935,89.6762" style="stroke:#000000;stroke-width:0.25;"/>
        <!-- Line -->
        <path d="M45.4935,77.6762 L45.4935,89.6762 " style="stroke:#000000;stroke-width:0.25;"/>
        <!-- Arc -->
        <path d="M45.4935,77.6762 A1,1 0 0,1 46.4935,76.6762" style="stroke:#000000;stroke-width:0.25;"/>
        <!-- Line -->
        <path d="M58.4935,76.6762 L46.4935,76.6762 " style="stroke:#000000;stroke-width:0.25;"/>
        <!-- Arc -->
        <path d="M58.4935,76.6762 A1,1 0 0,1 59.4935,77.6762" style="stroke:#000000;stroke-width:0.25;"/>
        <!-- Line -->
        <path d="M59.4935,89.6762 L59.4935,77.6762 " style="stroke:#000000;stroke-width:0.25;"/>
        <!-- Arc -->
        <path d="M59.4935,89.6762 A1,1 0 0,1 58.4935,90.6762" style="stroke:#000000;stroke-width:0.25;"/>
        <!-- Line -->
        <path d="M46.4935,90.6762 L58.4935,90.6762 " style="stroke:#000000;stroke-width:0.25;"/>
        <!-- Arc -->
        <path d="M46.4935,90.6762 A1,1 0 0,1 45.4935,89.6762" style="stroke:#000000;stroke-width:0.25;"/>
        <!-- Line -->
        <path d="M140.7436,77.6762 L140.7436,89.6762 " style="stroke:#000000;stroke-width:0.25;"/>
        <!-- Arc -->
        <path d="M140.7436,77.6762 A1,1 0 0,1 141.7436,76.6762" style="stroke:#000000;stroke-width:0.25;"/>
        <!-- Line -->
        <path d="M153.7436,76.6762 L141.7436,76.6762 " style="stroke:#000000;stroke-width:0.25;"/>
        <!-- Arc -->
        <path d="M153.7436,76.6762 A1,1 0 0,1 154.7436,77.6762" style="stroke:#000000;stroke-width:0.25;"/>
        <!-- Line -->
        <path d="M154.7436,89.6762 L154.7436,77.6762 " style="stroke:#000000;stroke-width:0.25;"/>
        <!-- Arc -->
        <path d="M154.7436,89.6762 A1,1 0 0,1 153.7436,90.6762" style="stroke:#000000;stroke-width:0.25;"/>
        <!-- Line -->
        <path d="M141.7436,90.6762 L153.7436,90.6762 " style="stroke:#000000;stroke-width:0.25;"/>
        <!-- Arc -->
        <path d="M141.7436,90.6762 A1,1 0 0,1 140.7436,89.6762" style="stroke:#000000;stroke-width:0.25;"/>
        <!-- Arc -->
        <path d="M69.306,58.6261 A1,1 0 0,1 70.306,57.6261" style="stroke:#000000;stroke-width:0.25;"/>
        <!-- Line -->
        <path d="M82.306,57.6261 L70.306,57.6261 " style="stroke:#000000;stroke-width:0.25;"/>
        <!-- Arc -->
        <path d="M82.306,57.6261 A1,1 0 0,1 83.306,58.6261" style="stroke:#000000;stroke-width:0.25;"/>
        <!-- Line -->
        <path d="M83.306,70.6262 L83.306,58.6261 " style="stroke:#000000;stroke-width:0.25;"/>
        <!-- Arc -->
        <path d="M83.306,70.6262 A1,1 0 0,1 82.306,71.6262" style="stroke:#000000;stroke-width:0.25;"/>
        <!-- Line -->
        <path d="M70.306,71.6262 L82.306,71.6262 " style="stroke:#000000;stroke-width:0.25;"/>
        <!-- Arc -->
        <path d="M70.306,71.6262 A1,1 0 0,1 69.306,70.6262" style="stroke:#000000;stroke-width:0.25;"/>
        <!-- Line -->
        <path d="M69.306,58.6261 L69.306,70.6262 " style="stroke:#000000;stroke-width:0.25;"/>
        <!-- Line -->
        <path d="M178.8436,77.6762 L178.8436,89.6762 " style="stroke:#000000;stroke-width:0.25;"/>
        <!-- Arc -->
        <path d="M178.8436,77.6762 A1,1 0 0,1 179.8436,76.6762" style="stroke:#000000;stroke-width:0.25;"/>
        <!-- Line -->
        <path d="M191.8436,76.6762 L179.8436,76.6762 " style="stroke:#000000;stroke-width:0.25;"/>
        <!-- Arc -->
        <path d="M191.8436,76.6762 A1,1 0 0,1 192.8436,77.6762" style="stroke:#000000;stroke-width:0.25;"/>
        <!-- Line -->
        <path d="M192.8436,89.6762 L192.8436,77.6762 " style="stroke:#000000;stroke-width:0.25;"/>
        <!-- Arc -->
        <path d="M192.8436,89.6762 A1,1 0 0,1 191.8436,90.6762" style="stroke:#000000;stroke-width:0.25;"/>
        <!-- Line -->
        <path d="M179.8436,90.6762 L191.8436,90.6762 " style="stroke:#000000;stroke-width:0.25;"/>
        <!-- Arc -->
        <path d="M179.8436,90.6762 A1,1 0 0,1 178.8436,89.6762" style="stroke:#000000;stroke-width:0.25;"/>
        <!-- Line -->
        <path d="M200.2748,20.5261 L200.2748,32.5261 " style="stroke:#000000;stroke-width:0.25;"/>
        <!-- Arc -->
        <path d="M200.2748,20.5261 A1,1 0 0,1 201.2748,19.5261" style="stroke:#000000;stroke-width:0.25;"/>
        <!-- Line -->
        <path d="M213.2748,19.5261 L201.2748,19.5261 " style="stroke:#000000;stroke-width:0.25;"/>
        <!-- Arc -->
        <path d="M213.2748,19.5261 A1,1 0 0,1 214.2748,20.5261" style="stroke:#000000;stroke-width:0.25;"/>
        <!-- Line -->
        <path d="M214.2748,32.5261 L214.2748,20.5261 " style="stroke:#000000;stroke-width:0.25;"/>
        <!-- Arc -->
        <path d="M214.2748,32.5261 A1,1 0 0,1 213.2748,33.5261" style="stroke:#000000;stroke-width:0.25;"/>
        <!-- Line -->
        <path d="M201.2748,33.5261 L213.2748,33.5261 " style="stroke:#000000;stroke-width:0.25;"/>
        <!-- Arc -->
        <path d="M201.2748,33.5261 A1,1 0 0,1 200.2748,32.5261" style="stroke:#000000;stroke-width:0.25;"/>
        <!-- Line -->
        <path d="M117.9378,34.5261 L117.9378,21.5261 " style="stroke:#000000;stroke-width:0.25;"/>
        <!-- Arc -->
        <path d="M117.9378,34.5261 A1,1 0 0,1 116.9378,35.5261" style="stroke:#000000;stroke-width:0.25;"/>
        <!-- Line -->
        <path d="M111.9378,35.5261 L116.9378,35.5261 " style="stroke:#000000;stroke-width:0.25;"/>
        <!-- Arc -->
        <path d="M111.9378,35.5261 A1,1 0 0,1 110.9378,34.5261" style="stroke:#000000;stroke-width:0.25;"/>
        <!-- Arc -->
        <path d="M109.9378,33.5261 A1,1 0 0,1 110.9378,34.5261" style="stroke:#000000;stroke-width:0.25;"/>
        <!-- Line -->
        <path d="M95.0618,33.5261 L109.9378,33.5261 " style="stroke:#000000;stroke-width:0.25;"/>
        <!-- Arc -->
        <path d="M94.0618,34.5261 A1,1 0 0,1 95.0618,33.5261" style="stroke:#000000;stroke-width:0.25;"/>
        <!-- Arc -->
        <path d="M94.0618,34.5261 A1,1 0 0,1 93.0618,35.5261" style="stroke:#000000;stroke-width:0.25;"/>
        <!-- Line -->
        <path d="M83.3373,35.5261 L93.0618,35.5261 " style="stroke:#000000;stroke-width:0.25;"/>
        <!-- Arc -->
        <path d="M83.3373,35.5261 A1,1 0 0,1 82.3373,34.5261" style="stroke:#000000;stroke-width:0.25;"/>
        <!-- Line -->
        <path d="M82.3373,21.5261 L82.3373,34.5261 " style="stroke:#000000;stroke-width:0.25;"/>
        <!-- Arc -->
        <path d="M82.3373,21.5261 A1,1 0 0,1 83.3373,20.5261" style="stroke:#000000;stroke-width:0.25;"/>
        <!-- Line -->
        <path d="M94.7677,20.5261 L83.3373,20.5261 " style="stroke:#000000;stroke-width:0.25;"/>
        <!-- Arc -->
        <path d="M95.6338,20.0261 A1,1 0 0,1 94.7677,20.5261" style="stroke:#000000;stroke-width:0.25;"/>
        <!-- Arc -->
        <path d="M95.6338,20.0261 A1,1 0 0,1 96.4998,19.5261" style="stroke:#000000;stroke-width:0.25;"/>
        <!-- Line -->
        <path d="M108.4998,19.5261 L96.4998,19.5261 " style="stroke:#000000;stroke-width:0.25;"/>
        <!-- Arc -->
        <path d="M108.4998,19.5261 A1,1 0 0,1 109.3658,20.0261" style="stroke:#000000;stroke-width:0.25;"/>
        <!-- Arc -->
        <path d="M110.2318,20.5261 A1,1 0 0,1 109.3658,20.0261" style="stroke:#000000;stroke-width:0.25;"/>
        <!-- Line -->
        <path d="M116.9378,20.5261 L110.2318,20.5261 " style="stroke:#000000;stroke-width:0.25;"/>
        <!-- Arc -->
        <path d="M116.9378,20.5261 A1,1 0 0,1 117.9378,21.5261" style="stroke:#000000;stroke-width:0.25;"/>
        <!-- Arc -->
        <path d="M212.1811,39.5761 A1,1 0 0,1 213.1811,38.5761" style="stroke:#000000;stroke-width:0.25;"/>
        <!-- Line -->
        <path d="M225.1811,38.5761 L213.1811,38.5761 " style="stroke:#000000;stroke-width:0.25;"/>
        <!-- Arc -->
        <path d="M225.1811,38.5761 A1,1 0 0,1 226.1811,39.5761" style="stroke:#000000;stroke-width:0.25;"/>
        <!-- Line -->
        <path d="M226.1811,51.5761 L226.1811,39.5761 " style="stroke:#000000;stroke-width:0.25;"/>
        <!-- Arc -->
        <path d="M226.1811,51.5761 A1,1 0 0,1 225.1811,52.5761" style="stroke:#000000;stroke-width:0.25;"/>
        <!-- Line -->
        <path d="M213.1811,52.5761 L225.1811,52.5761 " style="stroke:#000000;stroke-width:0.25;"/>
        <!-- Arc -->
        <path d="M213.1811,52.5761 A1,1 0 0,1 212.1811,51.5761" style="stroke:#000000;stroke-width:0.25;"/>
        <!-- Line -->
        <path d="M212.1811,39.5761 L212.1811,51.5761 " style="stroke:#000000;stroke-width:0.25;"/>
        <!-- Arc -->
        <path d="M59.781,20.5261 A1,1 0 0,1 60.781,19.5261" style="stroke:#000000;stroke-width:0.25;"/>
        <!-- Line -->
        <path d="M75.1623,19.5261 L60.781,19.5261 " style="stroke:#000000;stroke-width:0.25;"/>
        <!-- Arc -->
        <path d="M75.1623,19.5261 A1,1 0 0,1 76.1623,20.5261" style="stroke:#000000;stroke-width:0.25;"/>
        <!-- Line -->
        <path d="M76.1623,32.5261 L76.1623,20.5261 " style="stroke:#000000;stroke-width:0.25;"/>
        <!-- Arc -->
        <path d="M76.1623,32.5261 A1,1 0 0,1 75.1623,33.5261" style="stroke:#000000;stroke-width:0.25;"/>
        <!-- Line -->
        <path d="M60.781,33.5261 L75.1623,33.5261 " style="stroke:#000000;stroke-width:0.25;"/>
        <!-- Arc -->
        <path d="M60.781,33.5261 A1,1 0 0,1 59.781,32.5261" style="stroke:#000000;stroke-width:0.25;"/>
        <!-- Line -->
        <path d="M59.781,20.5261 L59.781,32.5261 " style="stroke:#000000;stroke-width:0.25;"/>
        <!-- Line -->
        <path d="M40.731,20.5261 L40.731,32.5261 " style="stroke:#000000;stroke-width:0.25;"/>
        <!-- Arc -->
        <path d="M40.731,20.5261 A1,1 0 0,1 41.731,19.5261" style="stroke:#000000;stroke-width:0.25;"/>
        <!-- Line -->
        <path d="M53.731,19.5261 L41.731,19.5261 " style="stroke:#000000;stroke-width:0.25;"/>
        <!-- Arc -->
        <path d="M53.731,19.5261 A1,1 0 0,1 54.731,20.5261" style="stroke:#000000;stroke-width:0.25;"/>
        <!-- Line -->
        <path d="M54.731,32.5261 L54.731,20.5261 " style="stroke:#000000;stroke-width:0.25;"/>
        <!-- Arc -->
        <path d="M54.731,32.5261 A1,1 0 0,1 53.731,33.5261" style="stroke:#000000;stroke-width:0.25;"/>
        <!-- Line -->
        <path d="M41.731,33.5261 L53.731,33.5261 " style="stroke:#000000;stroke-width:0.25;"/>
        <!-- Arc -->
        <path d="M41.731,33.5261 A1,1 0 0,1 40.731,32.5261" style="stroke:#000000;stroke-width:0.25;"/>
        <!-- Arc -->
        <path d="M126.456,20.5261 A1,1 0 0,1 127.456,19.5261" style="stroke:#000000;stroke-width:0.25;"/>
        <!-- Line -->
        <path d="M141.8373,19.5261 L127.456,19.5261 " style="stroke:#000000;stroke-width:0.25;"/>
        <!-- Arc -->
        <path d="M141.8373,19.5261 A1,1 0 0,1 142.8373,20.5261" style="stroke:#000000;stroke-width:0.25;"/>
        <!-- Line -->
        <path d="M142.8373,32.5261 L142.8373,20.5261 " style="stroke:#000000;stroke-width:0.25;"/>
        <!-- Arc -->
        <path d="M142.8373,32.5261 A1,1 0 0,1 141.8373,33.5261" style="stroke:#000000;stroke-width:0.25;"/>
        <!-- Line -->
        <path d="M127.456,33.5261 L141.8373,33.5261 " style="stroke:#000000;stroke-width:0.25;"/>
        <!-- Arc -->
        <path d="M127.456,33.5261 A1,1 0 0,1 126.456,32.5261" style="stroke:#000000;stroke-width:0.25;"/>
        <!-- Line -->
        <path d="M126.456,20.5261 L126.456,32.5261 " style="stroke:#000000;stroke-width:0.25;"/>
        <!-- Line -->
        <path d="M239.3749,52.5761 L251.3749,52.5761 " style="stroke:#000000;stroke-width:0.25;"/>
        <!-- Arc -->
        <path d="M239.3749,52.5761 A1,1 0 0,1 238.3749,51.5761" style="stroke:#000000;stroke-width:0.25;"/>
        <!-- Line -->
        <path d="M238.3749,39.5761 L238.3749,51.5761 " style="stroke:#000000;stroke-width:0.25;"/>
        <!-- Arc -->
        <path d="M238.3749,39.5761 A1,1 0 0,1 239.3749,38.5761" style="stroke:#000000;stroke-width:0.25;"/>
        <!-- Line -->
        <path d="M251.3749,38.5761 L239.3749,38.5761 " style="stroke:#000000;stroke-width:0.25;"/>
        <!-- Arc -->
        <path d="M251.3749,38.5761 A1,1 0 0,1 252.3749,39.5761" style="stroke:#000000;stroke-width:0.25;"/>
        <!-- Line -->
        <path d="M252.3749,51.5761 L252.3749,39.5761 " style="stroke:#000000;stroke-width:0.25;"/>
        <!-- Arc -->
        <path d="M252.3749,51.5761 A1,1 0 0,1 251.3749,52.5761" style="stroke:#000000;stroke-width:0.25;"/>
        <!-- Line -->
        <path d="M21.681,77.6762 L21.681,89.6762 " style="stroke:#000000;stroke-width:0.25;"/>
        <!-- Arc -->
        <path d="M21.681,77.6762 A1,1 0 0,1 22.681,76.6762" style="stroke:#000000;stroke-width:0.25;"/>
        <!-- Line -->
        <path d="M34.681,76.6762 L22.681,76.6762 " style="stroke:#000000;stroke-width:0.25;"/>
        <!-- Arc -->
        <path d="M34.681,76.6762 A1,1 0 0,1 35.681,77.6762" style="stroke:#000000;stroke-width:0.25;"/>
        <!-- Line -->
        <path d="M35.681,89.6762 L35.681,77.6762 " style="stroke:#000000;stroke-width:0.25;"/>
        <!-- Arc -->
        <path d="M35.681,89.6762 A1,1 0 0,1 34.681,90.6762" style="stroke:#000000;stroke-width:0.25;"/>
        <!-- Line -->
        <path d="M22.681,90.6762 L34.681,90.6762 " style="stroke:#000000;stroke-width:0.25;"/>
        <!-- Arc -->
        <path d="M22.681,90.6762 A1,1 0 0,1 21.681,89.6762" style="stroke:#000000;stroke-width:0.25;"/>
        <!-- Line -->
        <path d="M243.1374,20.5261 L243.1374,32.5261 " style="stroke:#000000;stroke-width:0.25;"/>
        <!-- Arc -->
        <path d="M243.1374,20.5261 A1,1 0 0,1 244.1374,19.5261" style="stroke:#000000;stroke-width:0.25;"/>
        <!-- Line -->
        <path d="M256.1374,19.5261 L244.1374,19.5261 " style="stroke:#000000;stroke-width:0.25;"/>
        <!-- Arc -->
        <path d="M256.1374,19.5261 A1,1 0 0,1 257.1374,20.5261" style="stroke:#000000;stroke-width:0.25;"/>
        <!-- Line -->
        <path d="M257.1374,32.5261 L257.1374,20.5261 " style="stroke:#000000;stroke-width:0.25;"/>
        <!-- Arc -->
        <path d="M257.1374,32.5261 A1,1 0 0,1 256.1374,33.5261" style="stroke:#000000;stroke-width:0.25;"/>
        <!-- Line -->
        <path d="M244.1374,33.5261 L256.1374,33.5261 " style="stroke:#000000;stroke-width:0.25;"/>
        <!-- Arc -->
        <path d="M244.1374,33.5261 A1,1 0 0,1 243.1374,32.5261" style="stroke:#000000;stroke-width:0.25;"/>
        <!-- Line -->
        <path d="M88.356,58.6261 L88.356,70.6262 " style="stroke:#000000;stroke-width:0.25;"/>
        <!-- Arc -->
        <path d="M88.356,58.6261 A1,1 0 0,1 89.356,57.6261" style="stroke:#000000;stroke-width:0.25;"/>
        <!-- Line -->
        <path d="M101.356,57.6261 L89.356,57.6261 " style="stroke:#000000;stroke-width:0.25;"/>
        <!-- Arc -->
        <path d="M101.356,57.6261 A1,1 0 0,1 102.356,58.6261" style="stroke:#000000;stroke-width:0.25;"/>
        <!-- Line -->
        <path d="M102.356,70.6262 L102.356,58.6261 " style="stroke:#000000;stroke-width:0.25;"/>
        <!-- Arc -->
        <path d="M102.356,70.6262 A1,1 0 0,1 101.356,71.6262" style="stroke:#000000;stroke-width:0.25;"/>
        <!-- Line -->
        <path d="M89.356,71.6262 L101.356,71.6262 " style="stroke:#000000;stroke-width:0.25;"/>
        <!-- Arc -->
        <path d="M89.356,71.6262 A1,1 0 0,1 88.356,70.6262" style="stroke:#000000;stroke-width:0.25;"/>
        <!-- Arc -->
        <path d="M50.256,58.6261 A1,1 0 0,1 51.256,57.6261" style="stroke:#000000;stroke-width:0.25;"/>
        <!-- Line -->
        <path d="M63.256,57.6261 L51.256,57.6261 " style="stroke:#000000;stroke-width:0.25;"/>
        <!-- Arc -->
        <path d="M63.256,57.6261 A1,1 0 0,1 64.256,58.6261" style="stroke:#000000;stroke-width:0.25;"/>
        <!-- Line -->
        <path d="M64.256,70.6262 L64.256,58.6261 " style="stroke:#000000;stroke-width:0.25;"/>
        <!-- Arc -->
        <path d="M64.256,70.6262 A1,1 0 0,1 63.256,71.6262" style="stroke:#000000;stroke-width:0.25;"/>
        <!-- Line -->
        <path d="M51.256,71.6262 L63.256,71.6262 " style="stroke:#000000;stroke-width:0.25;"/>
        <!-- Arc -->
        <path d="M51.256,71.6262 A1,1 0 0,1 50.256,70.6262" style="stroke:#000000;stroke-width:0.25;"/>
        <!-- Line -->
        <path d="M50.256,58.6261 L50.256,70.6262 " style="stroke:#000000;stroke-width:0.25;"/>
        <!-- Arc -->
        <path d="M240.7561,77.6762 A1,1 0 0,1 241.7561,76.6762" style="stroke:#000000;stroke-width:0.25;"/>
        <!-- Line -->
        <path d="M253.7561,76.6762 L241.7561,76.6762 " style="stroke:#000000;stroke-width:0.25;"/>
        <!-- Arc -->
        <path d="M253.7561,76.6762 A1,1 0 0,1 254.7561,77.6762" style="stroke:#000000;stroke-width:0.25;"/>
        <!-- Line -->
        <path d="M254.7561,89.6762 L254.7561,77.6762 " style="stroke:#000000;stroke-width:0.25;"/>
        <!-- Arc -->
        <path d="M254.7561,89.6762 A1,1 0 0,1 253.7561,90.6762" style="stroke:#000000;stroke-width:0.25;"/>
        <!-- Line -->
        <path d="M241.7561,90.6762 L253.7561,90.6762 " style="stroke:#000000;stroke-width:0.25;"/>
        <!-- Arc -->
        <path d="M241.7561,90.6762 A1,1 0 0,1 240.7561,89.6762" style="stroke:#000000;stroke-width:0.25;"/>
        <!-- Line -->
        <path d="M240.7561,77.6762 L240.7561,89.6762 " style="stroke:#000000;stroke-width:0.25;"/>
        <!-- Line -->
        <path d="M197.8936,77.6762 L197.8936,89.6762 " style="stroke:#000000;stroke-width:0.25;"/>
        <!-- Arc -->
        <path d="M197.8936,77.6762 A1,1 0 0,1 198.8936,76.6762" style="stroke:#000000;stroke-width:0.25;"/>
        <!-- Line -->
        <path d="M210.8936,76.6762 L198.8936,76.6762 " style="stroke:#000000;stroke-width:0.25;"/>
        <!-- Arc -->
        <path d="M210.8936,76.6762 A1,1 0 0,1 211.8936,77.6762" style="stroke:#000000;stroke-width:0.25;"/>
        <!-- Line -->
        <path d="M211.8936,89.6762 L211.8936,77.6762 " style="stroke:#000000;stroke-width:0.25;"/>
        <!-- Arc -->
        <path d="M211.8936,89.6762 A1,1 0 0,1 210.8936,90.6762" style="stroke:#000000;stroke-width:0.25;"/>
        <!-- Line -->
        <path d="M198.8936,90.6762 L210.8936,90.6762 " style="stroke:#000000;stroke-width:0.25;"/>
        <!-- Arc -->
        <path d="M198.8936,90.6762 A1,1 0 0,1 197.8936,89.6762" style="stroke:#000000;stroke-width:0.25;"/>
        <!-- Line -->
        <path d="M19.1974,16.9984 L257.2331,16.9984 " style="stroke:#000000;stroke-width:0.25;"/>
        <!-- Line -->
        <path d="M257.2368,93.6741 L19.2007,93.6762 " style="stroke:#000000;stroke-width:0.25;"/>
        <!-- Line -->
        <path d="M17.7007,92.1762 L17.6974,18.4985 " style="stroke:#000000;stroke-width:0.25;"/>
        <!-- Line -->
        <path d="M258.7368,92.174 L258.7331,18.4983 " style="stroke:#000000;stroke-width:0.25;"/>
        <!-- Arc -->
        <path d="M257.2331,16.9984 A1.5,1.5 0 0,1 258.7331,18.4983" style="stroke:#000000;stroke-width:0.25;"/>
        <!-- Arc -->
        <path d="M258.7368,92.174 A1.5,1.5 0 0,1 257.2368,93.6741" style="stroke:#000000;stroke-width:0.25;"/>
        <!-- Arc -->
        <path d="M17.7007,92.1762 A1.5,1.5 0 0,0 19.2007,93.6762" style="stroke:#000000;stroke-width:0.25;"/>
        <!-- Arc -->
        <path d="M19.1974,16.9984 A1.5,1.5 0 0,0 17.6974,18.4985" style="stroke:#000000;stroke-width:0.25;"/>
    </g>
</svg>
